<svg width="92" height="92" viewBox="0 0 92 92" fill="none" xmlns="http://www.w3.org/2000/svg">
<path d="M61.3335 3.8335C67.6849 3.8335 72.8335 8.98224 72.8335 15.3335C72.8335 17.4506 71.1173 19.1668 69.0002 19.1668C66.883 19.1668 65.1668 17.4506 65.1668 15.3335C65.1668 13.2164 63.4506 11.5002 61.3335 11.5002H15.3335C13.2164 11.5002 11.5002 13.2164 11.5002 15.3335V76.6668C11.5002 78.784 13.2164 80.5002 15.3335 80.5002H61.3335C63.4506 80.5002 65.1668 78.784 65.1668 76.6668V72.8335C65.1668 70.7163 66.883 69.0002 69.0002 69.0002C71.1173 69.0002 72.8335 70.7163 72.8335 72.8335V76.6668C72.8335 83.0183 67.6849 88.1668 61.3335 88.1668H15.3335C8.98224 88.1668 3.8335 83.0183 3.8335 76.6668V15.3335C3.8335 8.98224 8.98224 3.8335 15.3335 3.8335H61.3335Z" fill="black"/>
<path fill-rule="evenodd" clip-rule="evenodd" d="M79.7299 31.4369C78.5807 30.2875 76.7173 30.2875 75.5677 31.4369L45.6803 61.3247C45.1153 61.8894 44.7408 62.617 44.6097 63.4051L43.9791 67.1878L47.7618 66.5572C48.55 66.4261 49.2775 66.0516 49.8422 65.487L79.7299 35.5991C80.8795 34.4497 80.8795 32.5862 79.7299 31.4369ZM70.1466 26.0158C74.29 21.8724 81.008 21.8723 85.1514 26.0157C89.2945 30.1591 89.2945 36.8768 85.1514 41.0203L55.2637 70.9081C53.5686 72.6028 51.3866 73.7256 49.0222 74.1196L45.2395 74.7502C40.0507 75.615 35.5519 71.1166 36.4167 65.9274L37.0472 62.1447C37.4413 59.7803 38.5641 57.5984 40.2589 55.9033L70.1466 26.0158Z" fill="black"/>
<path d="M19.1665 26.8333C19.1665 24.7163 20.8828 23 22.9998 23H53.6665C55.7837 23 57.4998 24.7163 57.4998 26.8333C57.4998 28.9504 55.7837 30.6667 53.6665 30.6667H22.9998C20.8828 30.6667 19.1665 28.9504 19.1665 26.8333Z" fill="black"/>
<path d="M19.1665 42.1668C19.1665 40.0497 20.8828 38.3335 22.9998 38.3335H38.3332C40.4503 38.3335 42.1665 40.0497 42.1665 42.1668C42.1665 44.284 40.4503 46.0002 38.3332 46.0002H22.9998C20.8828 46.0002 19.1665 44.284 19.1665 42.1668Z" fill="black"/>
<path d="M19.1665 57.4998C19.1665 55.3827 20.8828 53.6665 22.9998 53.6665H26.8332C28.9502 53.6665 30.6665 55.3827 30.6665 57.4998C30.6665 59.617 28.9502 61.3332 26.8332 61.3332H22.9998C20.8828 61.3332 19.1665 59.617 19.1665 57.4998Z" fill="black"/>
</svg>
