<svg width="90" height="90" viewBox="0 0 63 63" fill="none" xmlns="http://www.w3.org/2000/svg">
<path d="M42 55.125V49.875C42 47.0902 40.8938 44.4195 38.9246 42.4504C36.9555 40.4812 34.2848 39.375 31.5 39.375H13.125C10.3402 39.375 7.66951 40.4812 5.70038 42.4504C3.73125 44.4195 2.625 47.0902 2.625 49.875V55.125" stroke="#293953" stroke-width="2.625" stroke-linecap="round" stroke-linejoin="round"/>
<path d="M22.3125 28.875C28.1115 28.875 32.8125 24.174 32.8125 18.375C32.8125 12.576 28.1115 7.875 22.3125 7.875C16.5135 7.875 11.8125 12.576 11.8125 18.375C11.8125 24.174 16.5135 28.875 22.3125 28.875Z" stroke="#293953" stroke-width="2.625" stroke-linecap="round" stroke-linejoin="round"/>
<path d="M44.625 28.875L49.875 34.125L60.375 23.625" stroke="#293953" stroke-width="2.625" stroke-linecap="round" stroke-linejoin="round"/>
</svg>
