<svg width="211" height="211" viewBox="0 0 211 211" fill="none" xmlns="http://www.w3.org/2000/svg">
<path d="M64.1967 27.272C64.1382 27.2892 64.0888 27.3287 64.0592 27.382C64.0296 27.4353 64.0221 27.4981 64.0385 27.5568C64.0385 27.7678 64.1334 27.7045 65.4311 27.7784C66.5494 27.8417 67.5411 27.8944 68.0264 27.8944H68.3218C68.3648 27.8829 68.404 27.8603 68.4355 27.8288C68.467 27.7973 68.4896 27.7581 68.5011 27.7151C68.5125 27.6726 68.5127 27.6279 68.5016 27.5854C68.4905 27.5428 68.4685 27.5039 68.4378 27.4724C68.1108 27.1454 64.2284 27.2614 64.1967 27.272ZM62.7408 20.9842C62.6616 22.2313 62.6616 23.4823 62.7408 24.7294C62.7408 24.856 62.667 25.3202 63.0046 25.3202C63.0727 25.3203 63.1383 25.2939 63.1874 25.2467C63.2366 25.1995 63.2656 25.1351 63.2683 25.067C63.3522 23.7074 63.3522 22.3438 63.2683 20.9842C63.2683 20.9142 63.2405 20.8471 63.1911 20.7977C63.1416 20.7482 63.0745 20.7204 63.0046 20.7204C62.9346 20.7204 62.8675 20.7482 62.8181 20.7977C62.7686 20.8471 62.7408 20.9142 62.7408 20.9842ZM58.025 26.7656C57.9698 26.7914 57.924 26.8337 57.8938 26.8865C57.8635 26.9394 57.8504 27.0003 57.8562 27.061C57.8562 27.4724 58.3204 27.4302 58.9639 27.5041C59.5552 27.5576 60.1433 27.6421 60.7258 27.7573C60.7813 27.7539 60.8344 27.7331 60.8774 27.6978C60.9204 27.6625 60.9511 27.6144 60.9652 27.5606C60.9792 27.5067 60.9759 27.4498 60.9556 27.398C60.9354 27.3461 60.8992 27.302 60.8524 27.272C59.9464 26.9404 58.9897 26.7691 58.025 26.7656ZM62.245 28.9811C61.6542 31.703 61.5592 32.1988 61.9707 32.1988C62.3821 32.1988 62.3399 32.03 62.8147 29.1288C62.8147 28.7595 62.245 28.6118 62.245 28.9811ZM71.0964 10.4025C69.9676 12.2066 71.4551 15.0867 73.7023 14.6225C74.3414 14.5416 74.9317 14.2382 75.3696 13.7655C75.8075 13.2929 76.065 12.6813 76.0971 12.0378C76.3398 9.49523 72.5523 8.08153 71.0964 10.4025ZM71.74 13.135C71.5349 12.8283 71.4018 12.4792 71.3506 12.1138C71.2995 11.7484 71.3316 11.3762 71.4446 11.025C72.1198 8.91498 75.2426 9.47413 75.5696 11.5103C75.7912 12.7446 73.1642 15.3294 71.74 13.135ZM19.8973 37.8009C19.8383 37.8029 19.7811 37.8219 19.7327 37.8556C19.6843 37.8894 19.6467 37.9364 19.6244 37.991C19.6021 38.0457 19.5961 38.1056 19.607 38.1636C19.618 38.2216 19.6455 38.2751 19.6863 38.3178C20.2349 38.9086 22.1655 42.369 23.2733 43.3924C23.7797 42.9809 26.913 37.822 26.7231 37.5371C24.463 37.8601 22.1756 37.9485 19.8973 37.8009ZM26.0585 37.9802C25.3172 39.6461 24.3595 41.2069 23.21 42.6222L20.5303 38.4022C22.3829 38.4668 24.2371 38.3253 26.0585 37.9802ZM11.2674 130.029C11.3376 130.029 11.4052 130.002 11.4573 129.955C11.4873 129.927 11.5111 129.892 11.5275 129.854C11.5438 129.816 11.5522 129.775 11.5522 129.734C11.5522 129.692 11.5438 129.651 11.5275 129.613C11.5111 129.575 11.4873 129.541 11.4573 129.512C10.7414 128.926 9.92689 128.472 9.05186 128.172C8.96739 128.178 8.88831 128.216 8.83031 128.278C8.79992 128.323 8.78369 128.376 8.78369 128.431C8.78369 128.485 8.79992 128.538 8.83031 128.584C8.83031 128.647 8.94636 128.7 9.62156 129.058C10.142 129.3 10.6368 129.593 11.0986 129.934C11.1407 129.986 11.2011 130.02 11.2674 130.029ZM11.605 132.498C10.8352 133.56 10.2174 134.725 9.76926 135.958C9.76364 136.012 9.77616 136.066 9.80483 136.112C9.8335 136.158 9.87668 136.193 9.92751 136.211H10.0225C10.0603 136.211 10.0974 136.201 10.1305 136.182C10.1636 136.164 10.1917 136.138 10.2124 136.106L10.6977 135.209C11.1619 134.365 11.7527 133.205 12.0586 132.877C12.1135 132.819 12.144 132.742 12.144 132.661C12.144 132.581 12.1135 132.504 12.0586 132.445C12.0364 132.4 12.0009 132.363 11.957 132.34C11.9131 132.316 11.8629 132.306 11.8132 132.312C11.7636 132.318 11.717 132.339 11.6797 132.372C11.6424 132.405 11.6163 132.449 11.605 132.498ZM16.1942 125.767C16.2396 125.718 16.269 125.656 16.2784 125.59C16.2878 125.524 16.2768 125.457 16.247 125.398C16.2056 125.333 16.1421 125.285 16.0683 125.264C15.9946 125.243 15.9156 125.249 15.8461 125.281C15.1196 126.064 14.547 126.977 14.1581 127.972C14.1537 128.006 14.1563 128.04 14.1657 128.074C14.1751 128.107 14.1912 128.137 14.2129 128.164C14.2346 128.191 14.2615 128.213 14.292 128.229C14.3225 128.244 14.3559 128.254 14.3902 128.257C14.4536 128.26 14.5163 128.241 14.5668 128.202C14.6172 128.164 14.6519 128.108 14.6645 128.046C14.9971 127.366 15.404 126.726 15.8777 126.136C16.1098 125.893 16.1731 125.809 16.1942 125.767ZM15.941 131.158C15.9071 131.149 15.8717 131.147 15.8369 131.151C15.8021 131.156 15.7685 131.167 15.7382 131.185C15.7078 131.203 15.6812 131.226 15.6599 131.254C15.6386 131.282 15.623 131.314 15.614 131.348C15.605 131.382 15.6027 131.417 15.6074 131.452C15.6121 131.487 15.6235 131.52 15.6412 131.551C15.6588 131.581 15.6823 131.608 15.7102 131.629C15.7381 131.65 15.7699 131.666 15.8039 131.675C16.0254 131.738 19.2115 132.656 19.4542 132.656C19.5017 132.651 19.5467 132.632 19.5841 132.602C19.6214 132.572 19.6495 132.532 19.6652 132.487C19.6786 132.439 19.6766 132.387 19.6596 132.34C19.6426 132.293 19.6114 132.252 19.5702 132.223C19.412 132.107 15.9832 131.168 15.941 131.158ZM193.445 73.4071C193.415 73.3691 193.376 73.3388 193.332 73.3186C193.288 73.2984 193.24 73.289 193.192 73.2911C193.15 73.291 193.108 73.3029 193.073 73.3253C193.037 73.3477 193.009 73.3798 192.991 73.4177C191.936 75.0846 189.7 78.9037 189.467 79.3046C189.414 79.3405 189.374 79.3929 189.353 79.4539C189.332 79.5148 189.331 79.5809 189.351 79.6422C189.364 79.697 189.394 79.746 189.439 79.7806C189.483 79.8152 189.538 79.8334 189.594 79.8321C197.644 79.083 197.38 79.1674 197.475 78.9353C197.57 78.7032 197.696 79.2096 193.445 73.4071ZM196.694 78.6083L190.122 79.2096C190.966 77.8487 192.411 75.4327 193.044 74.3672C193.128 74.23 193.192 74.114 193.244 74.0401C194.996 76.4139 196.156 77.9542 196.694 78.6083ZM200.376 61.9498C199.866 61.5572 199.246 61.3336 198.603 61.3103C197.959 61.287 197.325 61.4652 196.787 61.8199C196.25 62.1747 195.837 62.6883 195.606 63.2891C195.375 63.8899 195.337 64.5479 195.498 65.1713C195.658 65.7947 196.01 66.3523 196.503 66.7664C196.996 67.1805 197.605 67.4303 198.247 67.481C198.889 67.5317 199.531 67.3807 200.083 67.0492C200.634 66.7177 201.069 66.2222 201.326 65.6318C201.543 64.9922 201.569 64.3032 201.4 63.6492C201.231 62.9952 200.875 62.4046 200.376 61.9498ZM196.409 65.885C196.067 65.4184 195.892 64.85 195.912 64.2716C195.933 63.6933 196.147 63.1386 196.522 62.6972C196.896 62.2558 197.408 61.9535 197.975 61.8389C198.543 61.7244 199.132 61.8043 199.648 62.0659C200.197 62.4241 200.617 62.9467 200.851 63.5589C201.084 64.171 201.117 64.8413 200.946 65.4735C200.748 65.8883 200.446 66.2446 200.069 66.5071C199.691 66.7697 199.252 66.9296 198.795 66.9711C198.337 67.0126 197.876 66.9343 197.458 66.7439C197.04 66.5534 196.678 66.2574 196.409 65.885ZM161.605 77.9436C159.991 79.6211 161.71 83.3452 164.422 82.5856C164.961 82.4212 165.436 82.0961 165.785 81.6538C166.134 81.2115 166.34 80.6731 166.374 80.1107C166.409 79.5484 166.27 78.989 165.978 78.5074C165.686 78.0258 165.253 77.645 164.738 77.4161C164.223 77.1786 163.649 77.1018 163.09 77.1959C162.531 77.29 162.013 77.5506 161.605 77.9436ZM165.962 79.7266C165.998 80.2078 165.893 80.6892 165.658 81.1111C165.424 81.5329 165.071 81.8769 164.643 82.1003C162.238 83.3241 160.603 79.9903 161.615 78.4395C161.901 78.0254 162.31 77.7121 162.784 77.5445C163.258 77.3769 163.773 77.3635 164.256 77.5063C164.738 77.6491 165.163 77.9408 165.469 78.3396C165.776 78.7383 165.948 79.2238 165.962 79.7266ZM159.368 74.0929C159.316 74.1773 159.368 74.3039 159.484 74.2722C164.232 72.7741 164.052 72.8585 164.042 72.7108C163.198 62.9837 157.87 55.0185 157.638 55.1029C153.608 56.4216 153.555 56.295 153.65 56.4955C156.306 62.0904 158.228 68.0052 159.368 74.0929ZM157.754 55.6831C162.744 64.1231 163.303 70.7063 163.441 72.2677C162.09 72.7003 161.13 73.0062 159.801 73.5021C158.645 67.6932 156.734 62.0608 154.114 56.7487C157.87 55.451 157.638 55.4827 157.754 55.6831ZM109.583 83.4507C114.71 83.8833 136.949 84.358 139.123 84.3791C142.857 84.3791 146.708 83.3241 147.289 79.6C147.521 78.0808 148.344 66.7501 148.206 64.83C147.753 58.0569 145.242 53.2883 133.436 51.7163C126.526 50.7985 108.296 50.2921 102.641 54.3116C99.7291 56.4216 100.067 60.7049 99.9823 63.9227C99.9316 67.7135 100.147 71.5032 100.626 75.2639C101.28 80.982 102.957 82.8916 109.583 83.4507ZM130.303 72.5526C130.291 72.5849 130.269 72.6127 130.241 72.6324C130.213 72.6521 130.179 72.6626 130.145 72.6626C130.11 72.6626 130.077 72.6521 130.048 72.6324C130.02 72.6127 129.998 72.5849 129.987 72.5526C129.96 70.8994 130.045 69.2464 130.24 67.6046C130.24 67.478 130.493 67.4569 130.525 67.6046C130.562 69.2571 130.488 70.9101 130.303 72.5526ZM128.71 61.0847C129.491 61.1375 132.93 61.4434 133.341 61.5806C133.489 61.6333 133.542 61.9076 133.341 61.9393C132.94 61.9393 129.448 61.5384 128.668 61.4223C128.436 61.3907 128.488 61.0742 128.71 61.0847ZM112.4 74.4094C112.412 74.3771 112.433 74.3492 112.462 74.3295C112.49 74.3099 112.523 74.2993 112.558 74.2993C112.592 74.2993 112.626 74.3099 112.654 74.3295C112.683 74.3492 112.704 74.3771 112.716 74.4094C112.831 75.4603 112.859 76.5189 112.801 77.5744C117.242 77.5744 121.652 78.3867 126.094 78.3234C126.157 77.606 126.22 76.9097 126.326 76.2134C126.326 75.9813 126.737 76.0446 126.727 76.2134C126.727 76.9836 126.611 77.7432 126.526 78.5028C126.526 78.5615 126.503 78.6179 126.461 78.6594C126.42 78.701 126.363 78.7243 126.305 78.7243C124.005 78.7243 114.868 77.9647 112.59 78.0069C112.529 78.0043 112.471 77.9791 112.428 77.9361C112.385 77.8931 112.36 77.8356 112.357 77.7748C112.287 76.6535 112.301 75.5285 112.4 74.4094ZM108.18 70.8435C108.169 70.8709 108.15 70.8944 108.125 70.911C108.101 70.9275 108.072 70.9364 108.043 70.9364C108.013 70.9364 107.984 70.9275 107.96 70.911C107.935 70.8944 107.916 70.8709 107.905 70.8435C107.671 69.29 107.615 67.715 107.737 66.1487C107.737 66.001 108 66.0432 108.011 66.1487C108 66.9927 108.285 70.4848 108.169 70.8435H108.18ZM111.345 59.5655C111.376 59.5797 111.403 59.6027 111.422 59.6317C111.44 59.6607 111.45 59.6945 111.45 59.7291C111.45 59.7636 111.44 59.7974 111.422 59.8264C111.403 59.8554 111.376 59.8784 111.345 59.8926C109.663 60.4118 107.951 60.8241 106.217 61.1269C105.205 60.7366 111.102 59.5233 111.324 59.5655H111.345ZM181.977 193.413C181.977 193.498 182.198 193.582 182.22 193.498C182.894 191.303 184.045 189.283 185.589 187.584C187.134 185.884 189.035 184.546 191.155 183.665C192.346 183.208 193.575 182.855 194.827 182.61C196.874 182.241 184.625 182.209 181.977 193.413ZM178.559 188.909C179.285 186.248 180.962 183.946 183.272 182.439C185.582 180.932 188.364 180.325 191.092 180.732C191.187 180.732 191.208 180.574 191.092 180.553C186.978 179.635 179.972 181.028 178.337 188.835C178.295 188.909 178.538 188.982 178.559 188.909Z" fill="black"/>
<path d="M202.56 188.908C203.499 188.697 204.438 188.518 205.387 188.381C205.683 188.381 205.535 188.128 202.623 184.646C204.237 184.203 204.501 184.256 204.322 184.055C197.369 176.734 183.886 167.576 183.528 167.597C175.425 167.956 165.867 172.545 164.263 180.542C161.82 179.162 159.146 178.236 156.372 177.81C157.867 172.968 157.823 167.782 156.245 162.966C166.247 154.526 167.745 145.896 167.914 145.569C185.849 140.663 189.066 132.561 186.25 120.249C184.221 111.511 179.737 103.535 173.326 97.2606C173.252 90.3081 174.17 76.5826 169.422 62.2768C160.444 35.1844 139.555 31.1859 138.986 31.091C138.419 31.0121 137.848 30.9803 137.276 30.996C149.282 13.272 126.632 8.63004 120.238 15.9412C116.588 20.1612 119.004 26.1747 121.831 31.207C118.445 31.7134 108.116 33.95 100.151 45.0486C91.7849 56.7591 90.7826 72.9112 91.4262 88.7678C86.8791 85.5184 86.3622 85.223 86.436 85.6028C86.6365 86.4785 87.3961 89.9283 87.6387 90.7512L83.6719 88.272C83.577 88.2087 83.482 88.272 83.4926 88.4091C83.8407 90.2026 84.2416 91.975 84.6214 93.758C83.0426 93.1539 81.4333 92.6327 79.8001 92.1966C81.0239 94.7813 86.5943 106.249 90.6982 114.679C82.7224 114.246 81.1294 104.129 76.5401 98.9908C74.9378 97.1711 72.829 95.8707 70.4835 95.2562C68.138 94.6416 65.6625 94.7408 63.3737 95.5409C61.5908 92.6819 58.4469 93.6208 58.2359 95.5409C56.4846 92.9562 54.0159 92.07 50.9247 91.8695C48.1548 87.7746 45.6425 83.5112 43.4026 79.104C43.3902 79.0821 43.3715 79.0643 43.3489 79.053C43.3264 79.0418 43.301 79.0375 43.276 79.0407C38.4968 79.9269 24.7607 82.4062 24.7818 82.4378C25.3093 83.6089 25.668 84.474 24.9612 85.6028C24.0433 87.0693 22.6718 85.6028 22.5347 85.3391C19.6862 80.7287 38.4757 115.196 38.5812 115.185C44.9112 115.016 59.1326 112.769 59.7445 112.621C60.1447 112.551 60.5204 112.38 60.8367 112.125C61.153 111.87 61.3996 111.539 61.5534 111.163C61.7072 110.787 61.7632 110.378 61.7163 109.974C61.6693 109.571 61.5209 109.186 61.2848 108.855L58.4047 104.097C58.5775 103.811 58.7257 103.511 58.8478 103.2C59.4386 104.994 62.5825 105.764 64.0489 102.979C67.2139 102.979 69.651 105.447 71.0225 108.159C73.8604 113.803 76.5401 131.305 92.7766 130.008C94.1472 129.941 95.4994 129.663 96.7856 129.185C98.1887 138.205 101.786 155.117 109.678 159.78C108.348 163.05 108.211 167.808 108.623 171.311C111.123 195.365 135.325 197.855 146.497 190.301C153.808 195.291 156.752 200.482 157.174 200.324C157.997 199.986 158.798 199.606 159.632 199.269C168.758 195.682 175.457 197.243 178.126 198.087C179.337 198.53 180.515 199.058 181.65 199.669C181.659 200.146 181.819 200.607 182.107 200.986C182.396 201.365 182.797 201.643 183.253 201.779C185.363 202.36 186.767 200.007 186.06 198.815C189.299 196.705 197.063 194.595 205.651 195.228C206.062 195.175 205.725 194.932 202.56 188.908ZM205.071 188.138C197.992 189.098 186.914 193.055 183.971 199.532C186.081 192.147 194.953 186.872 202.349 184.762C202.349 184.741 204.185 187.009 205.102 188.138H205.071ZM177.926 168.916C179.772 168.431 181.354 168.252 183.201 167.861C196.029 176.966 195.017 176.111 203.794 183.929C200.14 184.74 196.651 186.167 193.476 188.149C188.507 191.103 184.783 194.31 183.485 199.912C178.39 191.926 170.467 185.828 164.622 180.848C166.31 175.014 170.098 170.973 177.957 168.916H177.926ZM166.321 145.411C159.558 144.609 153.302 135.051 156.731 132.751C158.71 132.335 160.645 131.735 162.512 130.957C161.71 135.093 168.979 143.681 173.716 142.995C171.315 143.964 168.851 144.772 166.342 145.411H166.321ZM126.231 135.916C124.785 136.696 122.834 135.188 124.606 131.96C126.178 129.09 130.862 125.798 131.643 129.596C131.477 129.531 131.303 129.488 131.126 129.47C130.786 129.578 130.46 129.727 130.155 129.913C125.081 132.498 126.515 135.747 126.294 135.874L126.231 135.916ZM123.867 128.109C121.568 128.436 120.829 129.522 118.592 128.784C117.571 128.436 116.678 127.789 116.029 126.927C113.634 124.364 113.644 120.84 113.307 118.424C115.559 118.474 117.813 118.407 120.059 118.223C119.868 120.293 120.278 122.374 121.24 124.216C122.644 126.642 126.737 128.51 128.256 127.085C128.265 127.365 128.326 127.641 128.436 127.898C127.867 128.168 127.32 128.481 126.8 128.837C125.327 129.987 124.226 131.547 123.635 133.32C122.567 132.028 121.594 130.66 120.724 129.227C120.945 129.227 123.35 128.425 123.889 128.256C123.914 128.262 123.94 128.257 123.962 128.244C123.984 128.23 123.999 128.208 124.005 128.183C124.01 128.157 124.006 128.131 123.992 128.109C123.978 128.088 123.956 128.072 123.931 128.067L123.867 128.109ZM138.574 92.0805C138.574 92.8296 138.701 93.3676 138.68 94.1167C135.283 95.1084 110.68 102.863 109.899 103.137C119.038 98.3852 128.677 94.6629 138.637 92.0383L138.574 92.0805ZM110.205 102.546C117.663 96.5277 126.23 92.0327 135.42 89.3164C135.42 90.3714 135.641 91.2682 135.662 92.3443C126.909 94.9596 118.41 98.3599 110.268 102.504L110.205 102.546ZM115.48 118.118C115.48 118.012 111.313 103.622 111.123 103.221L141.37 95.4882C141.496 99.149 142.193 121.568 142.246 123.667C142.14 123.667 128.172 126.832 128.161 126.938C127.673 127.164 127.138 127.272 126.6 127.254C124.921 127.022 123.366 126.239 122.179 125.028C121.412 124.044 120.858 122.911 120.551 121.702C120.244 120.493 120.192 119.233 120.396 118.002C120.449 117.801 120.597 117.939 115.512 118.076L115.48 118.118ZM112.969 102.493C113.666 102.251 140.241 94.1694 140.969 93.969C140.969 94.4121 141.127 94.6653 141.106 95.1084C132.561 97.461 113.37 102.388 113.001 102.451L112.969 102.493ZM110.268 103.401C110.004 103.61 109.701 103.764 109.377 103.854C109.053 103.944 108.714 103.969 108.38 103.927C108.046 103.885 107.723 103.776 107.432 103.608C107.14 103.44 106.885 103.215 106.681 102.947C106.702 102.931 106.718 102.91 106.729 102.886C106.74 102.862 106.746 102.836 106.745 102.81C106.861 102.884 108.085 103.569 108.591 103.865C109.171 103.744 109.741 103.586 110.3 103.39L110.268 103.401ZM110.859 103.274C110.986 104.329 115.143 118.044 115.174 118.128C114.392 118.067 113.605 118.102 112.832 118.234C113.022 122.602 114.161 127.423 118.234 129.006C118.708 130.44 116.176 131.421 114.974 129.006C114.52 128.056 107.483 105.521 106.734 103.295C106.995 103.592 107.318 103.828 107.679 103.988C108.04 104.149 108.432 104.228 108.827 104.222C109.222 104.216 109.611 104.125 109.968 103.954C110.324 103.783 110.639 103.536 110.891 103.232L110.859 103.274ZM131.136 129.586C131.136 129.586 135.072 131.221 135.472 131.358C133.837 131.485 129.427 136.76 132.487 140.526C131.98 140.21 126.969 137.002 126.61 136.158C125.482 133.394 129.659 130.229 131.168 129.544L131.136 129.586ZM137.551 132.023C138.181 132.247 138.831 132.413 139.492 132.519C136.411 133.405 134.217 140.579 138.015 143.417C136.151 142.617 134.349 141.679 132.624 140.611C130.662 137.382 133.352 130.113 137.582 131.981L137.551 132.023ZM140.062 132.656C141.704 133.021 143.367 133.286 145.041 133.447C141.549 134.618 140.937 142.773 144.883 145.685C142.762 145.186 140.684 144.519 138.669 143.691C135.04 140.589 136.517 132.93 140.093 132.614L140.062 132.656ZM145.273 133.468C146.809 133.616 148.352 133.669 149.894 133.626C146.856 137.467 150.295 144.43 153.671 146.835C150.942 146.758 148.226 146.426 145.558 145.843C141.845 143.375 141.475 134.481 145.305 133.426L145.273 133.468ZM150.126 133.626C152.236 133.557 154.336 133.306 156.404 132.877C153.239 135.399 158.851 144.693 165.846 145.537C161.978 146.467 158.007 146.9 154.03 146.824C146.888 139.83 149.747 134.207 150.158 133.584L150.126 133.626ZM174.634 142.626C169.306 143.976 163.124 134.734 162.755 132.993C162.635 132.318 162.61 131.629 162.681 130.947C164.514 130.229 166.185 129.153 167.597 127.782C168.146 134.671 179.55 139.112 182.663 137.551C180.626 140.494 174.697 142.573 174.666 142.583L174.634 142.626ZM183.401 136.718C183.028 137.091 182.573 137.373 182.072 137.54C179.498 138.311 169.053 134.375 167.755 127.592C168.973 126.114 169.71 124.299 169.865 122.391C172.324 127.951 184.15 129.913 186.461 125.292C186.893 130.662 185.574 134.112 183.433 136.675L183.401 136.718ZM183.813 114.425C182.758 117.263 176.428 120.006 170.098 117.39C169.908 117.306 169.865 117.559 169.95 117.601C175.889 120.344 182.684 118.097 183.929 114.837C185.125 118.002 185.936 121.3 186.345 124.659C185.237 129.164 173.779 128.204 169.823 122.254C170.054 119.576 169.524 116.888 168.293 114.499C168.832 113.898 173.632 108.75 180.626 107.716C181.865 109.854 182.941 112.083 183.844 114.383L183.813 114.425ZM180.542 107.505C178.141 107.775 175.818 108.525 173.712 109.71C171.606 110.896 169.76 112.492 168.283 114.404C167.551 112.936 166.629 111.57 165.54 110.343C165.614 109.857 165.656 109.372 165.751 108.887C166.806 103.612 172.176 98.9802 175.467 100.225C177.385 102.478 179.094 104.9 180.574 107.462L180.542 107.505ZM175.151 99.8559C170.931 98.1995 165.424 105.289 165.424 110.216C164.492 109.195 163.487 108.243 162.417 107.367C160.096 99.3706 165.656 94.7813 168.747 93.758C171.081 95.5658 173.236 97.5937 175.183 99.8137L175.151 99.8559ZM158.577 104.973C158.577 105.036 161.098 106.766 162.185 107.621C161.067 110.786 153.65 110.786 153.988 101.744C154.42 90.2132 163.314 87.3858 166.078 88.8733C166.692 89.1754 167.174 89.693 167.43 90.3273C167.687 90.9617 167.702 91.6684 167.471 92.3126C167.323 92.2177 165.434 90.9411 164.601 90.4664C162.748 91.5753 161.189 93.113 160.054 94.9501C159.118 96.4236 158.503 98.0775 158.249 99.8042C157.994 101.531 158.106 103.292 158.577 104.973ZM159.052 104.825C158.946 104.762 156.33 97.2289 164.749 90.8145C166.131 91.7324 167.26 92.5447 168.568 93.5575C162.533 95.4987 160.054 102.673 162.185 107.104C161.19 106.278 160.144 105.517 159.052 104.825ZM119.215 23.0202C117.042 10.6451 141.444 10.1598 140.23 23.189C139.83 27.5145 136.675 30.9116 134.47 34.4353C132.445 37.6742 131.801 37.9274 130.398 38.2122C131.189 35.9862 133.626 26.9554 134.301 24.666C134.327 24.6157 134.331 24.5574 134.313 24.5039C134.295 24.4505 134.257 24.4064 134.206 24.3812C134.156 24.356 134.098 24.3519 134.044 24.3697C133.991 24.3875 133.947 24.4258 133.922 24.4761C133.721 25.1302 133.531 25.7843 133.352 26.449C132.065 24.6344 133.025 25.6472 130.989 27.2086C129.512 25.8898 129.301 25.1935 129.016 25.5944C128.574 26.2409 128.061 26.8354 127.486 27.3668C126.188 27.5778 125.545 25.816 125.471 25.605C125.397 25.394 125.091 25.5417 125.133 25.6683C125.176 25.7949 128.467 37.9274 128.625 38.3283C125.756 38.2122 119.943 27.2508 119.215 23.0202ZM129.997 38.6659C133.162 38.3705 135.061 34.3615 135.462 33.7601C137.414 34.5936 137.255 39.7842 132.118 41.1451C125.028 42.9914 120.766 37.1994 124.237 34.889C126.463 37.8535 126.769 38.9613 129.986 38.6659H129.997ZM128.995 38.3705C128.995 37.9063 126.494 28.7805 125.925 27.198C127.433 28.464 128.098 27.6517 129.237 26.0375C129.617 26.4384 130.862 27.7994 131.084 27.6306C131.693 27.1746 132.209 26.605 132.603 25.9531L133.257 26.8288C132.845 28.3374 130.092 38.2755 130.092 38.2861C129.724 38.3343 129.355 38.3625 128.984 38.3705H128.995ZM100.225 46.8632C109.403 32.6629 122.19 32.3359 122.38 32.1671C122.895 33.0556 123.47 33.9085 124.1 34.7202C120.84 36.06 122.57 43.8565 132.128 41.8203C138.11 40.5438 137.836 34.1821 135.705 33.3803C136.2 32.6418 136.76 31.9139 137.213 31.1859C147.911 33.1693 161.89 43.3712 168.262 60.7892C172.429 72.1832 173.009 84.6111 172.819 96.7753C171.174 95.1845 169.411 93.7209 167.544 92.397C168.441 92.6608 168.346 87.3119 163.198 88.0293C160.411 88.5695 157.943 90.1739 156.319 92.5025C154.548 95.0222 153.511 97.9842 153.323 101.059C152.521 110.67 160.961 111.609 162.417 107.832C169.517 113.55 170.857 120.618 168.61 125.376C165.445 132.097 149.884 136.485 131.938 129.596C131.994 129.351 131.992 129.095 131.934 128.85C131.875 128.605 131.761 128.377 131.601 128.183C130.841 127.128 129.723 127.286 128.562 127.761C128.46 127.513 128.409 127.248 128.414 126.98C130.989 126.579 142.446 124.068 142.625 124.005C142.805 123.942 142.731 123.878 142.731 123.836C142.636 120.091 141.918 97.1762 141.897 95.0873C141.95 94.9607 141.897 94.7602 141.676 94.8235L141.486 94.8868C141.486 92.7768 141.918 93.0828 139.049 93.9162C139.049 91.6163 139.207 91.2787 138.891 91.3631C137.941 91.6058 137.002 91.859 136.063 92.1333C136.063 91.0783 135.894 89.9494 135.852 88.8522C135.851 88.8335 135.846 88.8152 135.837 88.7986C135.828 88.7821 135.816 88.7677 135.801 88.7566C135.786 88.7455 135.768 88.7379 135.75 88.7344C135.731 88.7308 135.712 88.7315 135.694 88.7362C125.857 91.4747 116.759 96.3809 109.066 103.095C108.96 103.158 99.6446 94.7813 91.9748 89.1476C92.4601 74.8102 92.0064 59.6076 100.225 46.8632ZM86.7736 86.0776C92.9454 90.0655 106.376 101.607 107.61 102.715L88.0291 90.8251C87.8919 89.9389 86.953 86.8688 86.7736 86.0776ZM83.9884 88.8417C90.8143 92.9773 105.869 102.209 105.922 102.251C102.757 100.732 85.5182 94.0534 85.2017 93.9373C84.843 92.1966 84.3999 90.5719 83.9884 88.8417ZM80.3592 92.5975C83.788 93.9901 106.397 103.031 106.428 103.031C107.779 107.642 114.351 129.164 114.984 129.902C114.573 129.776 96.4269 123.731 95.72 123.572C95.6778 123.435 80.4225 92.703 80.3592 92.5975ZM23.2099 86.4152C24.3915 86.8899 25.763 85.6661 25.6258 84.0942C27.4299 87.5651 38.9188 109.509 39.6995 111.672C39.7734 111.862 39.805 111.809 41.3453 111.524C41.4452 111.908 41.4502 112.31 41.3601 112.697C41.2699 113.083 41.0872 113.442 40.8276 113.742C40.5681 114.042 40.2396 114.274 39.8703 114.419C39.501 114.564 39.1021 114.617 38.7078 114.573C36.9249 110.67 24.3387 88.177 23.2099 86.4152ZM59.6601 112.136C58.8689 112.347 43.2443 114.615 39.9844 114.774C40.318 114.679 40.6279 114.515 40.8939 114.293C41.16 114.07 41.3762 113.794 41.5285 113.483C41.6807 113.171 41.7657 112.831 41.7778 112.485C41.7898 112.138 41.7288 111.793 41.5985 111.471C41.8201 111.471 58.5418 108.391 60.1243 108.581C61.5169 108.739 62.0761 111.493 59.6812 112.136H59.6601ZM60.3564 108.053C59.7656 107.8 41.1871 111.007 40.0688 111.218C38.6656 107.452 25.457 82.8598 25.2988 82.6277C30.0885 81.847 41.7884 79.5893 43.1072 79.3572C45.2751 83.6545 47.7209 87.806 50.4289 91.7851C48.7409 91.7007 46.557 91.8484 44.5525 91.6269C44.5133 91.6269 44.4758 91.6425 44.4481 91.6702C44.4204 91.6978 44.4048 91.7354 44.4048 91.7746C44.5947 93.6314 44.5947 95.5093 44.7952 97.3661C44.7952 97.4927 45.0589 97.5138 45.08 97.5138C48.0762 97.5876 51.1779 96.5748 54.1319 97.5982C54.7966 98.8747 60.1876 107.768 60.3775 108.053H60.3564ZM54.6594 97.883C54.8921 98.012 55.0885 98.1975 55.2305 98.4225C55.3725 98.6475 55.4555 98.9046 55.4718 99.1701C55.0392 98.4633 54.7438 97.978 54.6805 97.883H54.6594ZM58.2042 103.738L55.5984 99.4233C56.6534 95.9524 48.7514 96.9441 45.2172 97.0812C45.0378 95.2983 44.9956 93.9162 44.8163 92.1016C47.8969 92.397 51.0408 91.8695 54.0159 92.8507C58.4469 94.3171 60.5041 98.7587 58.2253 103.738H58.2042ZM63.9856 101.713C63.2788 104.878 60.1032 105.395 58.9111 102.894C59.3587 101.753 59.5464 100.527 59.4607 99.3041C59.3749 98.0814 59.0178 96.8932 58.4152 95.8258C58.4152 95.7203 59.4702 93.4731 61.2532 94.1167C63.7324 94.9501 64.5026 99.4972 64.0067 101.713H63.9856ZM64.5553 102.694C64.4008 102.683 64.2457 102.683 64.0911 102.694C64.9351 100.826 64.3865 97.4188 63.4159 95.6464C66.8974 94.5703 67.2878 101.016 64.5764 102.694H64.5553ZM64.9562 102.694C66.8552 101.723 67.5199 96.4693 64.7769 95.3088C67.0029 94.8763 68.7859 94.7286 69.3661 96.617C70.1363 99.0752 68.8808 102.694 66.391 103.116C65.9391 102.924 65.4637 102.793 64.9773 102.725L64.9562 102.694ZM68.9336 104.804C68.2999 104.167 67.5656 103.64 66.7603 103.242C69.767 103.242 70.9803 96.7647 68.501 95.14C70.0056 95.3111 71.4632 95.7696 72.7949 96.4904C75.8333 99.2545 71.4339 105.838 68.9547 104.804H68.9336ZM69.1129 105.025C71.1491 106.08 75.9493 100.404 73.3962 96.828C75.1976 97.9659 76.705 99.513 77.7956 101.343C77.8548 101.693 77.8936 102.045 77.9116 102.398C77.9116 105.996 74.2402 108.127 70.8115 107.241C70.3407 106.439 69.7777 105.696 69.134 105.025H69.1129ZM70.8853 107.399C71.74 107.746 72.6707 107.863 73.5847 107.739C74.4987 107.614 75.364 107.251 76.0943 106.688C76.8245 106.124 77.3942 105.379 77.7464 104.526C78.0986 103.674 78.221 102.743 78.1015 101.829C79.0616 103.401 79.8634 105.068 80.739 106.692C80.7104 107.149 80.6505 107.604 80.5597 108.053C79.7684 111.113 75.9599 112.98 72.4256 110.891C72.0284 109.683 71.5198 108.514 70.9064 107.399H70.8853ZM72.4889 111.06C75.9493 113.803 80.8551 111.06 80.9289 107.135C81.6172 108.446 82.426 109.689 83.3449 110.849C83.3449 117.337 76.6456 117.991 73.7866 114.826C73.1641 113.012 72.9637 112.326 72.51 111.06H72.4889ZM73.9343 115.08C77.5213 119.605 84.1361 116.04 83.6297 111.134C84.4206 112.09 85.3443 112.929 86.3727 113.624C87.8392 119.521 80.623 122.887 76.2131 119.89C75.3353 118.349 74.5804 116.74 73.9554 115.08H73.9343ZM76.4663 120.355C81.3826 123.804 88.0713 119.089 86.6365 113.856C87.5577 114.434 88.5952 114.801 89.6749 114.932C91.3207 122.908 84.7902 127.149 81.2349 126.052C79.3412 124.403 77.7365 122.448 76.4874 120.27L76.4663 120.355ZM81.5408 126.357C87.3644 127.824 91.8165 119.743 89.8859 115.016C90.1983 115.043 90.5124 115.043 90.8248 115.016C92.133 117.696 93.2724 120.027 94.0742 121.652C94.07 123.256 93.6449 124.831 92.8415 126.22C92.038 127.608 90.8843 128.762 89.4955 129.565C86.5579 129.409 83.7605 128.259 81.5619 126.305L81.5408 126.357ZM89.8226 129.522C91.2192 128.815 92.3793 127.716 93.1606 126.359C93.942 125.002 94.3108 123.447 94.2219 121.884C95.4246 124.332 95.0343 123.889 96.0998 124.237C96.2792 125.735 96.4796 127.223 96.7012 128.71C94.4808 129.382 92.1595 129.657 89.8437 129.522H89.8226ZM112.294 155.085C111.845 152.619 111.909 150.087 112.484 147.647C114.077 142.14 119.5 138.543 122.907 144.155C123.266 144.757 123.614 145.379 123.962 146.012C117.569 147.257 112.389 154.948 112.294 155.085ZM125.028 154.832C113.56 165.952 120.333 179.392 123.329 182.578C121.589 180.795 111.313 166.426 124.965 154.674C125.007 154.631 125.102 154.758 125.028 154.821V154.832ZM123.435 143.976C122.745 142.588 121.553 141.513 120.101 140.969C116.198 139.914 110.226 144.525 111.872 155.739C111.556 156.214 110.237 158.472 109.941 159.126C99.8662 152.648 98.4103 132.265 97.0704 124.553C101.29 125.957 116.978 130.947 117.432 130.883C117.837 130.823 118.203 130.608 118.453 130.283C118.703 129.959 118.817 129.55 118.772 129.143C119.333 129.308 119.918 129.38 120.502 129.354C121.482 130.852 122.538 132.3 123.667 133.69C123.523 134.214 123.573 134.772 123.807 135.263C124.042 135.753 124.445 136.142 124.944 136.359C125.201 136.469 125.485 136.504 125.761 136.459C126.037 136.414 126.295 136.292 126.505 136.106C127.307 138.216 136.38 143.016 138.606 143.965C147.623 147.761 157.653 148.422 167.091 145.843C163.177 160.054 147.995 169.876 140.484 170.499C129.48 171.395 129.469 162.28 128.995 159.442C128.107 153.989 126.222 148.746 123.435 143.976ZM131.79 175.046C130.176 172.936 129.533 170.256 131.347 168.283C133.32 170.699 136.169 171.448 139.26 171.142C141.195 171.057 143.109 170.702 144.946 170.087C145.172 171.47 145.092 172.885 144.714 174.233C142.108 180.162 135.04 179.171 131.78 175.046H131.79ZM160.275 198.33C159.22 198.726 158.209 199.232 157.258 199.838C155.465 197.243 153.112 195.333 150.833 193.002C148.301 190.428 143.111 187.558 140.283 186.26L138.912 185.501C140.304 184.942 144.588 183.233 145.685 182.726C154.125 188.149 156.71 193.055 157.163 193.002C167.798 192.116 176.438 194.996 181.629 198.963C173.568 194.764 164.422 196.61 160.233 198.34L160.275 198.33ZM179.35 197.053C169.517 190.544 157.575 192.696 157.406 192.495C154.185 188.566 150.339 185.195 146.022 182.515C146.03 182.5 146.034 182.484 146.034 182.468C146.034 182.451 146.03 182.435 146.022 182.42C144.44 181.336 142.733 180.446 140.937 179.772C144.273 178.377 147.854 177.665 151.47 177.68C155.085 177.694 158.661 178.434 161.985 179.857C162.786 180.194 163.293 180.553 164.095 180.827C164.095 180.827 169.707 185.575 172.281 187.875C176.306 191.432 179.926 195.423 183.074 199.775C181.922 198.751 180.675 197.84 179.35 197.053ZM181.966 199.691L183.749 200.682C184.34 200.086 184.964 199.522 185.617 198.994C185.662 199.235 185.66 199.482 185.61 199.721C185.561 199.961 185.464 200.188 185.327 200.391C185.189 200.593 185.013 200.766 184.808 200.9C184.604 201.034 184.375 201.127 184.134 201.173C183.894 201.219 183.647 201.216 183.407 201.167C183.168 201.117 182.94 201.021 182.738 200.883C182.536 200.745 182.363 200.569 182.228 200.365C182.094 200.16 182.001 199.931 181.956 199.691H181.966ZM183.907 200.176C184.483 198.937 185.252 197.797 186.186 196.8C189.668 193.15 197.274 190.132 202.349 188.972C203.404 190.892 204.364 192.822 205.335 194.764C198.34 193.941 187.389 195.84 183.897 200.176H183.907ZM29.1812 161.415C29.1646 161.408 29.1466 161.404 29.1284 161.404C29.1102 161.404 29.0922 161.408 29.0757 161.415C29.0682 161.43 29.0644 161.446 29.0644 161.463C29.0644 161.479 29.0682 161.495 29.0757 161.51C29.0726 161.531 29.0742 161.553 29.0802 161.573C29.0863 161.594 29.0967 161.612 29.1107 161.628C29.1247 161.644 29.1421 161.657 29.1615 161.666C29.181 161.675 29.2021 161.679 29.2234 161.679L32.6627 161.805C37.9377 162.016 46.8841 162.354 48.0235 162.354C48.0521 162.346 48.0773 162.329 48.0953 162.305C48.1132 162.281 48.123 162.252 48.123 162.222C48.123 162.192 48.1132 162.163 48.0953 162.14C48.0773 162.116 48.0521 162.099 48.0235 162.09C46.5676 161.985 40.6385 161.753 30.2256 161.394L29.1812 161.415ZM42.1999 159.305L46.3144 159.421C46.3333 159.423 46.3522 159.42 46.3701 159.414C46.388 159.408 46.4044 159.398 46.4182 159.385C46.4321 159.372 46.4432 159.356 46.4507 159.339C46.4583 159.322 46.4621 159.303 46.4621 159.284C46.4635 159.265 46.4611 159.245 46.455 159.227C46.4488 159.208 46.4391 159.191 46.4264 159.176C46.4136 159.162 46.3981 159.15 46.3807 159.141C46.3633 159.132 46.3443 159.127 46.3249 159.126C42.1049 158.788 33.2007 158.588 27.8519 158.461H27.4299C25.3199 158.461 23.7374 158.377 23.2099 158.345C23.1837 158.344 23.1576 158.35 23.1338 158.361C23.11 158.372 23.0891 158.388 23.0727 158.408C23.0598 158.433 23.053 158.46 23.053 158.488C23.053 158.515 23.0598 158.542 23.0727 158.567C23.085 158.59 23.1031 158.61 23.1252 158.625C23.1473 158.64 23.1728 158.649 23.1993 158.651C27.5354 158.883 36.6822 159.115 42.1999 159.305Z" fill="black"/>
<path d="M92.4601 169.634C97.6402 165.582 96.1948 160.856 93.1248 159.97C94.6651 158.915 94.855 158.83 94.6862 158.577C94.6581 158.536 94.6155 158.506 94.5666 158.494C94.5178 158.482 94.4663 158.49 94.4224 158.514C90.1075 158.946 88.7782 153.408 92.9349 150.021C92.9467 150.009 92.9561 149.995 92.9624 149.98C92.9688 149.965 92.9721 149.948 92.9721 149.932C92.9721 149.915 92.9688 149.898 92.9624 149.883C92.9561 149.868 92.9467 149.854 92.9349 149.842C92.9479 149.808 92.9479 149.77 92.9349 149.736C92.9135 149.711 92.8851 149.692 92.8532 149.683C92.8213 149.673 92.7873 149.674 92.7555 149.684L83.4821 149.103C84.2311 148.66 84.4421 148.629 84.4738 148.291C84.5054 147.953 82.9862 147.183 83.7458 144.831C84.0291 143.832 84.4404 142.875 84.9696 141.982C87.8392 140.526 87.7548 140.495 87.7126 140.336C87.6903 140.257 87.6487 140.185 87.5917 140.126C87.5346 140.067 87.4638 140.024 87.3856 139.999C79.9267 139.471 54.7755 138.279 54.6806 138.353C37.8006 145.326 20.7201 153.661 19.8656 154.378C17.9033 155.982 17.534 159.168 17.5551 160.297C6.32994 168.927 6.24554 169.053 5.74969 170.013C5.37783 170.755 5.27238 171.603 5.45101 172.413C5.62965 173.224 6.08151 173.949 6.73084 174.466C9.36834 176.417 12.3012 174.371 14.8332 177.251C15.2854 177.745 15.6161 178.338 15.7992 178.983C15.9823 179.628 16.0128 180.306 15.8882 180.964C11.5627 183.148 8.62984 183.655 9.30504 184.129C14.0736 185.933 12.7232 191.05 8.59819 192.221C8.55674 192.231 8.51986 192.255 8.49347 192.288C8.46709 192.322 8.45274 192.363 8.45274 192.406C8.45274 192.448 8.46709 192.49 8.49347 192.523C8.51986 192.557 8.55674 192.58 8.59819 192.59C8.76699 192.59 57.1282 196.367 60.9367 196.715C62.2875 196.886 63.6593 196.726 64.9352 196.251C65.6842 195.935 89.2529 180.426 90.5822 179.519C92.6922 178.095 94.8022 176.27 95.1926 173.59C95.3825 172.039 94.549 170.457 92.4601 169.634ZM10.36 184.172C10.4655 184.172 63.9646 188.392 64.165 188.476C64.5577 188.554 64.9297 188.713 65.2568 188.944C65.584 189.175 65.859 189.472 66.064 189.816C67.2245 192.253 65.8003 195.566 61.844 196.293C60.7152 196.23 16.2891 192.759 9.49494 192.263C13.1347 190.565 14.042 186.292 10.36 184.172ZM13.4195 175.658C54.7439 178.58 60.6941 178.823 60.8945 178.823C61.8089 179.064 62.6329 179.566 63.2654 180.269C63.8979 180.972 64.3112 181.845 64.4547 182.779C64.5981 183.714 64.4654 184.67 64.0728 185.53C63.6803 186.391 63.0449 187.117 62.2449 187.621C60.789 187.516 19.9711 184.456 14.1897 184.003C17.0171 182.378 17.2175 177.673 13.4195 175.658ZM83.8724 148.228C82.9757 148.755 56.9699 164.169 56.1681 164.58C54.4379 164.675 52.6233 162.766 53.2247 159.896C54.0792 155.813 55.3347 156.225 84.4421 142.14C83.2816 144.124 82.0473 146.867 83.8724 148.196V148.228ZM56.7273 154.99H56.664C24.3493 154.99 21.7224 154.072 19.4119 155.433C20.4669 153.988 20.2981 154.378 39.784 145.569C47.6015 142.024 53.6572 139.239 54.554 138.87C62.6669 139.556 83.1128 140.262 86.7631 140.452C83.7986 141.898 58.1199 154.21 56.7273 154.959V154.99ZM33.1691 155.37C40.0372 155.56 48.5721 155.792 56.0204 155.518C52.7605 157.216 51.0725 162.597 54.67 164.791C24.9929 164.084 20.2981 165.952 18.4413 162.544C17.9849 161.657 17.7944 160.657 17.8927 159.664C18.6734 154.505 19.4436 154.98 33.1691 155.338V155.37ZM21.9756 164.865C22.2288 164.992 54.6806 165.308 56.0204 165.308C56.1576 165.308 72.5945 155.507 82.7541 149.483C83.5665 149.578 90.3712 149.937 92.1753 150C89.1263 151.994 63.7958 168.093 61.6647 169.971C52.9187 169.349 10.2229 168.452 10.1068 168.452C8.91201 168.373 7.7176 168.613 6.64644 169.148C7.37439 168.42 14.3796 163.082 17.4602 160.708C17.7345 163.525 20.0449 165.192 21.9756 164.876V164.865ZM93.6101 159.041C90.3185 161.151 64.3549 177.747 63.1417 178.506C61.422 177.842 60.1877 177.061 59.9767 174.74C59.5336 169.961 63.0678 169.855 91.7849 150.644C88.525 154.03 90.1497 158.904 93.6101 159.052V159.041ZM63.8802 186.735C65.6631 184.256 65.1145 180.257 62.1711 178.823C63.2261 178.823 61.6014 180.215 77.4053 169.94C83.8302 165.878 91.6689 160.919 92.6817 160.223C93.2858 160.364 93.8427 160.661 94.2977 161.082C94.7527 161.504 95.0902 162.037 95.277 162.628C96.6063 166.669 91.8482 169.665 88.314 172.071C82.5115 176.048 67.8997 184.551 63.8802 186.735ZM61.6963 178.39C32.3568 176.449 9.28394 175.014 8.34499 174.782C7.81998 174.703 7.32218 174.497 6.89461 174.182C6.46705 173.867 6.12257 173.453 5.89094 172.975C5.65931 172.497 5.5475 171.97 5.56517 171.439C5.58284 170.909 5.72945 170.39 5.99234 169.929C6.38269 170.045 5.99234 168.874 10.1068 168.811C12.0797 168.811 56.031 170.035 61.3376 170.235C58.5841 173.147 59.2382 176.934 61.6963 178.432V178.39ZM13.2613 183.908C12.1008 183.834 11.1513 183.792 10.2545 183.75C11.626 183.254 14.4745 182.062 15.6139 181.471C15.1596 182.557 14.3225 183.439 13.2613 183.95V183.908ZM63.1733 187.685C73.075 182.271 82.6917 176.352 91.9854 169.95C92.6078 170.298 94.5068 171.448 94.6756 172.609C94.9183 174.265 93.6734 175.985 93.1248 176.649C92.3546 177.588 67.0874 194.363 65.5576 195.333C65.0006 195.684 64.3865 195.934 63.743 196.072C67.6149 194.5 68.6277 188.56 63.1733 187.727V187.685Z" fill="black"/>
</svg>