<svg width="269" height="269" viewBox="0 0 269 269" fill="none" xmlns="http://www.w3.org/2000/svg">
<g clip-path="url(#clip0_50_358)">
<path d="M168.506 44.9372L197.545 32.4243L188.525 88.6092L241.404 109.64L195.293 142.993L217.814 195.254L194.439 191.504" stroke="#1A4FB6" stroke-width="1.17547" stroke-linecap="round" stroke-linejoin="round"/>
<path d="M94.9536 51.5192L111.931 8.83618L143.779 52.8619" stroke="#1A4FB6" stroke-width="1.18" stroke-linecap="round" stroke-linejoin="round"/>
<path d="M84.8278 202.665L71.8566 208.254L54.986 215.525L64.0015 159.34L11.1265 138.309L57.2318 104.956L34.7158 52.6946L63.1613 57.2626" stroke="#1A4FB6" stroke-width="1.17547" stroke-linecap="round" stroke-linejoin="round"/>
<path d="M214.792 70.7082L210.906 72.0026L210.214 76.0373L207.781 72.7463L203.733 73.3359L206.11 70.0073L204.3 66.3344L208.204 67.5699L211.134 64.709L211.166 68.804L214.792 70.7082Z" fill="#252525"/>
<path d="M179.57 25.1642L172.397 25.8047L169.573 32.4243L166.751 25.8047L159.578 25.1642L165.005 20.4326L163.398 13.4177L169.573 17.1134L175.748 13.4177L174.143 20.4326L179.57 25.1642Z" fill="#1A4FB6"/>
<path d="M148.329 220.241L148.353 220.803C148.047 220.929 147.727 221.019 147.4 221.071C146.673 221.236 145.919 221.24 145.19 221.081C144.462 220.922 143.778 220.605 143.186 220.152C141.323 218.434 142.197 214.802 145.821 212.013L145.925 211.984C147.094 216.03 148.004 219.16 148.329 220.241Z" fill="black"/>
<path d="M55.8298 82.2349L45.6766 83.7076L42.1806 93.3502L37.6447 84.1485L27.3896 83.8001L34.7382 76.6458L31.9014 66.7847L40.9786 71.5618L49.4795 65.8186L47.7375 75.9262L55.8298 82.2349Z" fill="black"/>
<path d="M135.442 212.01L138.264 212.929L132.137 237.692C132.137 237.692 136.693 246.732 138.264 263.436H65.9527C65.9527 263.436 65.7946 232.902 85.0517 223.662L90.1263 197.209L93.2364 198.227L135.446 212.006" fill="#252525"/>
<path d="M135.442 212.01L138.264 212.929L132.137 237.692C132.137 237.692 136.693 246.732 138.264 263.436H65.9527C65.9527 263.436 65.7946 232.902 85.0517 223.662L90.1263 197.209L93.2364 198.227L135.446 212.006" stroke="black" stroke-width="1.17547" stroke-linecap="round" stroke-linejoin="round"/>
<path d="M102.308 201.661L96.8662 221.068" stroke="black" stroke-width="1.17547" stroke-linecap="round" stroke-linejoin="round"/>
<path d="M114.55 205.658L108.561 225.58" stroke="black" stroke-width="1.17547" stroke-linecap="round" stroke-linejoin="round"/>
<path d="M127.382 209.851L122.321 228.454" stroke="black" stroke-width="1.17547" stroke-linecap="round" stroke-linejoin="round"/>
<path d="M93.2308 198.227L94.9111 173.616C94.9111 173.616 79.879 158.944 76.2583 154.418C72.6376 149.891 61.9954 141.865 59.2752 138.787C56.9363 135.788 54.7649 132.662 52.7708 129.423C51.5085 127.7 43.9268 122.747 43.699 120.909C43.4712 119.07 44.2752 116.428 51.5085 115.857C58.7418 115.286 64.4047 125.402 66.3544 126.321C68.3041 127.24 73.2112 130.555 76.5451 130.672" stroke="black" stroke-width="1.17547" stroke-linecap="round" stroke-linejoin="round"/>
<path d="M103.681 72.9875C103.36 73.1106 103.067 73.298 102.821 73.5383C102.574 73.7786 102.38 74.0668 102.249 74.385C102.118 74.7033 102.054 75.0449 102.059 75.389C102.065 75.733 102.142 76.0723 102.283 76.3858C103.374 79.4678 105.91 85.2673 105.91 86.622C106.293 90.5773 107.43 94.4225 109.26 97.9504C111.618 102.213 111.074 108.011 112.703 113.267" stroke="black" stroke-width="1.17547" stroke-linecap="round" stroke-linejoin="round"/>
<path d="M135.442 212.01C135.459 211.633 136.607 190.078 136.936 180.76C136.987 179.213 137.021 178.007 137.021 177.288C137.021 172.196 139.374 171.215 140.154 160.041C140.933 148.866 135.256 124.756 129.179 116.72C129.179 116.72 128.881 115.736 128.375 114.139C126.699 108.814 122.724 96.6775 119.791 91.6043C115.984 85.0115 112.906 76.0737 108.803 73.73C108.059 73.2279 107.211 72.9002 106.323 72.7714C105.435 72.6426 104.529 72.7161 103.673 72.9863" stroke="black" stroke-width="1.17547" stroke-linecap="round" stroke-linejoin="round"/>
<path d="M76.3001 144.479C74.1641 140.876 77.2381 133.415 77.2381 133.415L77.1175 130.648C76.9044 125.524 76.4582 114.798 76.3939 111.688C76.3054 107.556 74.8381 103.688 74.8381 97.5606C74.8381 91.4328 70.4965 78.1922 70.3665 74.5381C70.2366 70.8839 66.3466 64.8901 66.2126 60.3555C66.1486 59.6639 66.2633 58.9674 66.5457 58.3328C66.8281 57.6982 67.2688 57.1467 67.8255 56.7313C68.3821 56.3158 69.0362 56.0503 69.7249 55.9601C70.4136 55.8699 71.1139 55.9581 71.7588 56.2162" stroke="black" stroke-width="1.17547" stroke-linecap="round" stroke-linejoin="round"/>
<path d="M83.0126 112.747C83.101 110.004 83.6698 107.298 84.6929 104.752C84.6929 104.752 83.1506 92.546 82.167 86.7961C81.1835 81.0461 76.4198 66.7403 74.7341 62.8101C73.9408 60.9528 72.6316 58.502 71.8839 56.1623C71.0571 53.5574 70.9271 51.0877 72.988 49.7223C76.9156 47.1173 81.564 48.7293 85.1566 56.1194" stroke="black" stroke-width="1.17547" stroke-linecap="round" stroke-linejoin="round"/>
<path d="M103.682 72.9876C102.533 70.5574 101.251 68.1923 99.8426 65.903C98.1568 63.3824 96.7137 57.5052 91.6109 55.4805C89.7215 54.7327 86.8151 54.6269 85.3344 56.2148C84.0855 57.5548 83.8483 60.0914 86.0955 64.4692C91.0106 74.0381 91.564 78.1037 93.2498 81.1857C94.9355 84.2677 96.7552 96.8972 97.8781 102.09C99.0011 107.282 98.1568 109.662 99.0024 112.049" stroke="black" stroke-width="1.17547" stroke-linecap="round" stroke-linejoin="round"/>
<path d="M128.38 114.135C128.38 114.135 129.67 106.669 130.469 103.247C131.268 99.8248 132.066 89.3379 134.234 85.5779C136.133 82.335 137.299 78.7159 137.651 74.9745C137.767 72.3508 140.72 62.5929 141.658 60.6566C142.003 59.9087 142.615 59.3166 143.374 58.9964C144.133 58.6761 144.984 58.6508 145.761 58.9253" stroke="black" stroke-width="1.17547" stroke-linecap="round" stroke-linejoin="round"/>
<path d="M138.111 100.168C138.915 99.7139 141.871 98.804 141.871 97.8901C141.871 96.9762 141.067 88.5356 141.871 83.8094C142.675 79.0832 144.039 71.0982 144.606 68.2466C144.921 66.6641 145.544 62.7044 146.194 59.0006C146.563 56.6234 147.061 54.2678 147.684 51.9442C148.947 48.1091 151.556 45.0043 156.231 46.2438" stroke="black" stroke-width="1.17547" stroke-linecap="round" stroke-linejoin="round"/>
<path d="M150.572 95.4622C150.572 95.4622 150.065 79.4505 150.572 75.921C151.078 72.3914 153.723 65.0763 153.849 61.5441C153.951 58.6738 154.471 50.8147 156.421 46.2681C156.782 45.3376 157.322 44.4864 158.009 43.7623C161.286 40.6093 165.071 42.6246 165.952 48.4268C166.483 52.3717 166.618 56.3597 166.354 60.3314" stroke="black" stroke-width="1.17547" stroke-linecap="round" stroke-linejoin="round"/>
<path d="M152.585 95.2851C154.825 95.2387 157.064 95.3943 159.276 95.7501" stroke="black" stroke-width="1.17547" stroke-linecap="round" stroke-linejoin="round"/>
<path d="M166.348 101.374C166.348 101.374 163.936 97.5201 162.532 97.1342C162.532 97.1342 163.302 87.8265 163.687 83.8106C164.071 79.7946 164.035 77.7806 164.44 72.6886C164.792 68.2411 165.08 63.1156 166.348 60.3485C166.512 59.9798 166.718 59.6309 166.96 59.3087C168.761 56.9958 174.476 57.4514 174.476 65.2877C174.476 73.1241 175.117 78.5189 175.247 80.8317C175.377 83.1446 175.113 92.5219 175.247 97.0149C175.381 101.508 177.174 114.712 176.788 119.723" stroke="black" stroke-width="1.17547" stroke-linecap="round" stroke-linejoin="round"/>
<path d="M149.568 134.516C144.062 138.689 141.787 147.798 142.544 153.114" stroke="black" stroke-width="1.17547" stroke-linecap="round" stroke-linejoin="round"/>
<path d="M161.737 134.516C161.863 132.7 165.344 127.027 168.827 125.996C169.484 125.79 170.114 125.507 170.703 125.151C172.999 123.665 175.116 121.919 177.012 119.948C177.852 119.13 178.62 118.36 179.268 117.742C181.849 115.291 180.819 112.584 188.169 110.132C195.518 107.68 200.935 110.648 200.935 112.584C200.935 114.521 194.204 117.612 193.297 119.678C192.39 121.745 188.399 125.737 186.979 127.803C185.558 129.869 186.175 139.896 180.762 144.023C178.176 145.992 175.326 149.641 172.186 153.118C168.751 156.916 164.976 160.51 160.822 161.485C155.752 162.624 150.439 161.783 145.969 159.135" stroke="black" stroke-width="1.17547" stroke-linecap="round" stroke-linejoin="round"/>
<path d="M136.936 180.756C136.936 180.756 142.535 200.246 145.925 211.978C147.095 216.026 148.004 219.151 148.329 220.237" stroke="black" stroke-width="1.17547" stroke-linecap="round" stroke-linejoin="round"/>
<path d="M172.191 153.114C172.344 153.65 182.395 187.795 185.52 195.98" stroke="black" stroke-width="1.17547" stroke-linecap="round" stroke-linejoin="round"/>
<path d="M143.097 220.241L162.527 263.436H226.311L194.419 195.39C191.963 194.651 188.949 195.106 185.643 196.328C172.454 201.226 154.566 218.38 148.346 220.799C148.04 220.926 147.72 221.016 147.393 221.067C146.666 221.233 145.912 221.236 145.183 221.078C144.455 220.919 143.771 220.601 143.179 220.148C141.316 218.431 142.19 214.8 145.815 212.01" fill="#1A4FB6"/>
<path d="M143.097 220.241L162.527 263.436H226.311L194.419 195.39C191.963 194.651 188.949 195.106 185.643 196.328C172.454 201.226 154.566 218.38 148.346 220.799C148.04 220.926 147.72 221.016 147.393 221.067C146.666 221.233 145.912 221.236 145.183 221.078C144.455 220.919 143.771 220.601 143.179 220.148C141.316 218.431 142.19 214.8 145.815 212.01" stroke="black" stroke-width="1.17547" stroke-linecap="round" stroke-linejoin="round"/>
<path d="M55.8298 82.2349L45.6766 83.7076L42.1806 93.3502L37.6447 84.1485L27.3896 83.8001L34.7382 76.6458L31.9014 66.7847L40.9786 71.5618L49.4795 65.8186L47.7375 75.9262L55.8298 82.2349Z" fill="#1A4FB6"/>
<path d="M169.573 32.4243L166.751 25.8047L159.578 25.1642L165.005 20.4326L163.398 13.4177L169.573 17.1134L175.748 13.4177L174.143 20.4326L179.57 25.1642L172.397 25.8047L169.573 32.4243Z" stroke="#1A4FB6" stroke-width="1.17547" stroke-linecap="round" stroke-linejoin="round"/>
<path d="M75.8669 27.69L75.8856 22.9491L71.7129 20.6925L76.23 19.244L77.0836 14.5781L79.8601 18.4279L84.5581 17.8008L81.7589 21.6265L83.8064 25.9025L79.3026 24.4204L75.8669 27.69Z" fill="#252525" stroke="#252525" stroke-width="1.17547" stroke-linecap="round" stroke-linejoin="round"/>
<path d="M68.8345 58.8959C72.088 58.0008 72.9469 62.4938 73.9452 65.0599L69.9252 66.3409" stroke="black" stroke-width="1.17547" stroke-linecap="round" stroke-linejoin="round"/>
<path d="M104.651 75.4293C107.516 74.2046 108.862 78.2111 110.093 80.4302L107.037 81.1766" stroke="black" stroke-width="1.17547" stroke-linecap="round" stroke-linejoin="round"/>
<path d="M87.4038 58.2929C90.3706 56.6849 92.2278 60.8751 93.7688 63.149L89.2128 64.8388" stroke="black" stroke-width="1.17547" stroke-linecap="round" stroke-linejoin="round"/>
<path d="M75.2222 51.8077C80.6116 50.0482 80.7282 56.8032 81.7265 59.3666L76.7685 61.1086" stroke="black" stroke-width="1.17547" stroke-linecap="round" stroke-linejoin="round"/>
<path d="M45.8291 121.159C48.016 119.59 50.1653 121.911 53.1643 124.994L52.245 126.164" stroke="black" stroke-width="1.17547" stroke-linecap="round" stroke-linejoin="round"/>
<path d="M198.665 113.206C195.127 113.206 191.584 117.283 191.584 117.283L192.56 117.9" stroke="black" stroke-width="1.17547" stroke-linecap="round" stroke-linejoin="round"/>
<path d="M162.925 126.772C165.434 125.882 168.051 125.337 170.707 125.151" stroke="black" stroke-width="1.17547" stroke-linecap="round" stroke-linejoin="round"/>
</g>
<defs>
<clipPath id="clip0_50_358">
<rect width="268.694" height="268.694" fill="white"/>
</clipPath>
</defs>
</svg>
