<svg width="368" height="368" viewBox="0 0 368 368" fill="none" xmlns="http://www.w3.org/2000/svg">
<g clip-path="url(#clip0_155_250)">
<path d="M157.75 116.498C157.75 119.945 154.947 122.75 151.5 122.75C148.055 122.75 145.25 119.945 145.25 116.498C145.25 113.054 148.053 110.25 151.5 110.25C154.947 110.25 157.75 113.054 157.75 116.498Z" fill="#1A4FB6" stroke="black" stroke-width="0.5"/>
<path d="M190.159 135.088L190.159 135.088C188.234 133.036 185.364 132.612 182.237 133.034L180.894 133.215L180.564 134.529L177.433 147.018L176.306 151.511L180.349 149.25L191.553 142.986L192.719 142.334L192.563 141.006C192.368 139.352 191.808 136.845 190.159 135.088Z" fill="#252525" stroke="#252525" stroke-width="4"/>
<path d="M212.499 122.75C215.946 122.75 218.75 119.945 218.75 116.498C218.75 113.054 215.947 110.25 212.499 110.25C209.054 110.25 206.25 113.054 206.25 116.498L212.499 122.75ZM212.499 122.75C209.054 122.75 206.251 119.945 206.25 116.498L212.499 122.75Z" fill="#1A4FB6" stroke="black" stroke-width="0.5"/>
<path d="M264.866 43.8382C264.866 49.2009 260.502 53.5615 255.14 53.5615C249.779 53.5615 245.417 49.2001 245.417 43.8382C245.417 38.4749 249.779 34.1128 255.14 34.1128C260.504 34.1128 264.866 38.4756 264.866 43.8382Z" fill="#252525"/>
<path d="M264.866 43.8382C264.866 49.2009 260.502 53.5615 255.14 53.5615C249.779 53.5615 245.417 49.2001 245.417 43.8382C245.417 38.4749 249.779 34.1128 255.14 34.1128C260.504 34.1128 264.866 38.4756 264.866 43.8382Z" stroke="#252525"/>
<path d="M184.001 300.445C178.918 300.445 174.783 304.578 174.783 309.66C174.783 314.742 178.918 318.877 184.001 318.877C189.082 318.877 193.217 314.742 193.217 309.66C193.216 304.578 189.082 300.445 184.001 300.445Z" fill="#252525"/>
<path d="M184.001 242.892C178.918 242.892 174.783 247.027 174.783 252.11C174.783 257.192 178.918 261.325 184.001 261.325C189.082 261.325 193.217 257.192 193.217 252.11C193.216 247.027 189.082 242.892 184.001 242.892Z" fill="#252525"/>
<path d="M319.663 181.872L296.768 185.504L301.348 162.778C301.764 160.714 300.428 158.703 298.364 158.288C296.299 157.871 294.288 159.207 293.874 161.272L288.45 188.186L268.301 207.14C266.637 204.738 264.866 202.4 262.991 200.136C263.202 194.871 262.147 179.326 245.219 161.312C249.453 152.336 251.687 142.41 251.687 132.425C251.687 116.541 246.199 101.444 236.167 89.3333C241.812 85.8869 245.589 79.6682 245.589 72.5842C245.589 62.766 238.336 54.6125 228.908 53.1937C228.201 50.461 226.875 46.3626 224.662 42.9392C225.263 42.163 226.198 41.2753 227.576 40.7133C230.156 39.6617 233.713 40.0067 237.94 41.69C237.851 42.3959 237.792 43.1103 237.792 43.8398C237.792 53.405 245.575 61.1876 255.14 61.1876C264.707 61.1876 272.491 53.405 272.491 43.8398C272.491 34.2725 264.707 26.4899 255.14 26.4899C254.502 26.4899 253.873 26.5294 253.253 26.5977C244.846 -0.441099 206.443 -0.0299738 204.842 0.00452632C174.891 0.00452632 158.3 15.3226 149.657 28.1739C142.821 38.3385 139.825 48.4283 138.685 53.2627C129.455 54.8518 122.41 62.9076 122.41 72.5835C122.41 79.6689 126.189 85.889 131.837 89.3354C121.804 101.446 116.311 116.54 116.311 132.425C116.311 142.41 118.546 152.338 122.782 161.316C105.858 179.329 104.799 194.873 105.008 200.136C103.132 202.401 101.362 204.738 99.6968 207.141L79.5494 188.185L74.1236 161.27C73.7074 159.207 71.6963 157.871 69.6335 158.288C67.5685 158.704 66.2338 160.714 66.6493 162.779L71.2313 185.505L48.3347 181.873C46.2561 181.541 44.3018 182.962 43.9726 185.04C43.642 187.12 45.0615 189.073 47.1402 189.402L74.2961 193.711L95.5288 213.687C86.3869 229.295 81.4699 247.166 81.4699 265.47C81.4699 322.006 127.465 368.002 184.001 368.002C240.538 368.002 286.533 322.007 286.533 265.47C286.533 247.166 281.615 229.294 272.472 213.686L293.705 193.711L320.859 189.402C322.939 189.072 324.357 187.119 324.027 185.04C323.696 182.959 321.74 181.538 319.663 181.872ZM156.139 32.2011C167.209 15.8969 183.595 7.62906 204.913 7.62834C205.263 7.6154 239.391 7.2934 246.04 29.0946C243.825 30.4681 241.942 32.3175 240.536 34.5104C234.361 32.0889 228.972 31.828 224.485 33.7392C218.607 36.2433 216.724 41.455 216.529 42.0415C216.101 43.3252 216.386 44.739 217.276 45.7567C218.877 47.5867 220.08 50.4495 220.892 52.973H146.642C147.958 48.1832 150.746 40.1447 156.139 32.2011ZM130.036 72.582C130.036 65.9738 135.414 60.5968 142.022 60.5968H225.977C232.585 60.5968 237.962 65.9731 237.962 72.582C237.962 79.1917 232.586 84.5672 225.977 84.5672H142.022C135.414 84.568 130.036 79.191 130.036 72.582ZM139.565 92.0329C140.371 92.1343 141.19 92.1925 142.022 92.1925H225.977C226.808 92.1925 227.626 92.135 228.431 92.0329C238.517 103.115 244.06 117.373 244.06 132.423C244.06 141.634 241.922 150.786 237.874 158.99C223.908 164.233 204.396 167.232 184 167.232C163.606 167.232 144.091 164.232 130.124 158.989C126.075 150.784 123.936 141.633 123.936 132.424C123.937 117.373 129.48 103.115 139.565 92.0329ZM128.385 166.481C143.112 171.817 163.183 174.859 184.001 174.859C204.821 174.859 224.891 171.817 239.615 166.481C254.855 182.663 255.553 195.926 255.392 199.714C247.776 206.721 220.955 213.867 184.001 213.867C147.051 213.867 120.23 206.723 112.611 199.716C112.447 195.883 113.168 182.635 128.385 166.481ZM240.223 214.953V291.152C239.936 292.137 236.123 294.42 229.943 294.42C223.744 294.42 219.924 292.122 219.662 291.185V219.149C227.278 218.076 234.205 216.66 240.223 214.953ZM278.907 265.47C278.907 317.802 236.332 360.376 184.001 360.376C131.669 360.376 89.0945 317.802 89.0945 265.47C89.0945 244.187 96.2705 223.535 109.365 206.88C121.412 215.735 150.214 221.492 184 221.492C193.871 221.492 203.31 220.997 212.037 220.08V310.562C212.037 312.667 213.744 314.374 215.849 314.374C217.955 314.374 219.662 312.667 219.662 310.562V300.182C221.561 300.964 223.743 301.524 226.13 301.815V315.825C226.13 317.93 227.837 319.637 229.942 319.637C232.047 319.637 233.754 317.93 233.754 315.825V301.815C236.14 301.524 238.323 300.963 240.222 300.182V310.562C240.222 312.667 241.929 314.374 244.035 314.374C246.14 314.374 247.847 312.667 247.847 310.562V212.445C252.225 210.773 255.874 208.909 258.633 206.881C271.73 223.535 278.907 244.188 278.907 265.47Z" fill="black"/>
<path d="M319.663 181.872L296.768 185.504L301.348 162.778C301.764 160.714 300.428 158.703 298.364 158.288C296.299 157.871 294.288 159.207 293.874 161.272L288.45 188.186L268.301 207.14C266.637 204.738 264.866 202.4 262.991 200.136C263.202 194.871 262.147 179.326 245.219 161.312C249.453 152.336 251.687 142.41 251.687 132.425C251.687 116.541 246.199 101.444 236.167 89.3333C241.812 85.8869 245.589 79.6682 245.589 72.5842C245.589 62.766 238.336 54.6125 228.908 53.1937C228.201 50.461 226.875 46.3626 224.662 42.9392C225.263 42.163 226.198 41.2753 227.576 40.7133C230.156 39.6617 233.713 40.0067 237.94 41.69C237.851 42.3959 237.792 43.1103 237.792 43.8398C237.792 53.405 245.575 61.1876 255.14 61.1876C264.707 61.1876 272.491 53.405 272.491 43.8398C272.491 34.2725 264.707 26.4899 255.14 26.4899C254.502 26.4899 253.873 26.5294 253.253 26.5977C244.846 -0.441099 206.443 -0.0299738 204.842 0.00452632C174.891 0.00452632 158.3 15.3226 149.657 28.1739C142.821 38.3385 139.825 48.4283 138.685 53.2627C129.455 54.8518 122.41 62.9076 122.41 72.5835C122.41 79.6689 126.189 85.889 131.837 89.3354C121.804 101.446 116.311 116.54 116.311 132.425C116.311 142.41 118.546 152.338 122.782 161.316C105.858 179.329 104.799 194.873 105.008 200.136C103.132 202.401 101.362 204.738 99.6968 207.141L79.5494 188.185L74.1236 161.27C73.7074 159.207 71.6963 157.871 69.6335 158.288C67.5685 158.704 66.2338 160.714 66.6493 162.779L71.2313 185.505L48.3347 181.873C46.2561 181.541 44.3018 182.962 43.9726 185.04C43.642 187.12 45.0615 189.073 47.1402 189.402L74.2961 193.711L95.5288 213.687C86.3869 229.295 81.4699 247.166 81.4699 265.47C81.4699 322.006 127.465 368.002 184.001 368.002C240.538 368.002 286.533 322.007 286.533 265.47C286.533 247.166 281.615 229.294 272.472 213.686L293.705 193.711L320.859 189.402C322.939 189.072 324.357 187.119 324.027 185.04C323.696 182.959 321.74 181.538 319.663 181.872ZM156.139 32.2011C167.209 15.8969 183.595 7.62906 204.913 7.62834C205.263 7.6154 239.391 7.2934 246.04 29.0946C243.825 30.4681 241.942 32.3175 240.536 34.5104C234.361 32.0889 228.972 31.828 224.485 33.7392C218.607 36.2433 216.724 41.455 216.529 42.0415C216.101 43.3252 216.386 44.739 217.276 45.7567C218.877 47.5867 220.08 50.4495 220.892 52.973H146.642C147.958 48.1832 150.746 40.1447 156.139 32.2011ZM130.036 72.582C130.036 65.9738 135.414 60.5968 142.022 60.5968H225.977C232.585 60.5968 237.962 65.9731 237.962 72.582C237.962 79.1917 232.586 84.5672 225.977 84.5672H142.022C135.414 84.568 130.036 79.191 130.036 72.582ZM139.565 92.0329C140.371 92.1343 141.19 92.1925 142.022 92.1925H225.977C226.808 92.1925 227.626 92.135 228.431 92.0329C238.517 103.115 244.06 117.373 244.06 132.423C244.06 141.634 241.922 150.786 237.874 158.99C223.908 164.233 204.396 167.232 184 167.232C163.606 167.232 144.091 164.232 130.124 158.989C126.075 150.784 123.936 141.633 123.936 132.424C123.937 117.373 129.48 103.115 139.565 92.0329ZM128.385 166.481C143.112 171.817 163.183 174.859 184.001 174.859C204.821 174.859 224.891 171.817 239.615 166.481C254.855 182.663 255.553 195.926 255.392 199.714C247.776 206.721 220.955 213.867 184.001 213.867C147.051 213.867 120.23 206.723 112.611 199.716C112.447 195.883 113.168 182.635 128.385 166.481ZM240.223 214.953V291.152C239.936 292.137 236.123 294.42 229.943 294.42C223.744 294.42 219.924 292.122 219.662 291.185V219.149C227.278 218.076 234.205 216.66 240.223 214.953ZM278.907 265.47C278.907 317.802 236.332 360.376 184.001 360.376C131.669 360.376 89.0945 317.802 89.0945 265.47C89.0945 244.187 96.2705 223.535 109.365 206.88C121.412 215.735 150.214 221.492 184 221.492C193.871 221.492 203.31 220.997 212.037 220.08V310.562C212.037 312.667 213.744 314.374 215.849 314.374C217.955 314.374 219.662 312.667 219.662 310.562V300.182C221.561 300.964 223.743 301.524 226.13 301.815V315.825C226.13 317.93 227.837 319.637 229.942 319.637C232.047 319.637 233.754 317.93 233.754 315.825V301.815C236.14 301.524 238.323 300.963 240.222 300.182V310.562C240.222 312.667 241.929 314.374 244.035 314.374C246.14 314.374 247.847 312.667 247.847 310.562V212.445C252.225 210.773 255.874 208.909 258.633 206.881C271.73 223.535 278.907 244.188 278.907 265.47Z" fill="black" fill-opacity="0.2"/>
<path d="M319.663 181.872L296.768 185.504L301.348 162.778C301.764 160.714 300.428 158.703 298.364 158.288C296.299 157.871 294.288 159.207 293.874 161.272L288.45 188.186L268.301 207.14C266.637 204.738 264.866 202.4 262.991 200.136C263.202 194.871 262.147 179.326 245.219 161.312C249.453 152.336 251.687 142.41 251.687 132.425C251.687 116.541 246.199 101.444 236.167 89.3333C241.812 85.8869 245.589 79.6682 245.589 72.5842C245.589 62.766 238.336 54.6125 228.908 53.1937C228.201 50.461 226.875 46.3626 224.662 42.9392C225.263 42.163 226.198 41.2753 227.576 40.7133C230.156 39.6617 233.713 40.0067 237.94 41.69C237.851 42.3959 237.792 43.1103 237.792 43.8398C237.792 53.405 245.575 61.1876 255.14 61.1876C264.707 61.1876 272.491 53.405 272.491 43.8398C272.491 34.2725 264.707 26.4899 255.14 26.4899C254.502 26.4899 253.873 26.5294 253.253 26.5977C244.846 -0.441099 206.443 -0.0299738 204.842 0.00452632C174.891 0.00452632 158.3 15.3226 149.657 28.1739C142.821 38.3385 139.825 48.4283 138.685 53.2627C129.455 54.8518 122.41 62.9076 122.41 72.5835C122.41 79.6689 126.189 85.889 131.837 89.3354C121.804 101.446 116.311 116.54 116.311 132.425C116.311 142.41 118.546 152.338 122.782 161.316C105.858 179.329 104.799 194.873 105.008 200.136C103.132 202.401 101.362 204.738 99.6968 207.141L79.5494 188.185L74.1236 161.27C73.7074 159.207 71.6963 157.871 69.6335 158.288C67.5685 158.704 66.2338 160.714 66.6493 162.779L71.2313 185.505L48.3347 181.873C46.2561 181.541 44.3018 182.962 43.9726 185.04C43.642 187.12 45.0615 189.073 47.1402 189.402L74.2961 193.711L95.5288 213.687C86.3869 229.295 81.4699 247.166 81.4699 265.47C81.4699 322.006 127.465 368.002 184.001 368.002C240.538 368.002 286.533 322.007 286.533 265.47C286.533 247.166 281.615 229.294 272.472 213.686L293.705 193.711L320.859 189.402C322.939 189.072 324.357 187.119 324.027 185.04C323.696 182.959 321.74 181.538 319.663 181.872ZM156.139 32.2011C167.209 15.8969 183.595 7.62906 204.913 7.62834C205.263 7.6154 239.391 7.2934 246.04 29.0946C243.825 30.4681 241.942 32.3175 240.536 34.5104C234.361 32.0889 228.972 31.828 224.485 33.7392C218.607 36.2433 216.724 41.455 216.529 42.0415C216.101 43.3252 216.386 44.739 217.276 45.7567C218.877 47.5867 220.08 50.4495 220.892 52.973H146.642C147.958 48.1832 150.746 40.1447 156.139 32.2011ZM130.036 72.582C130.036 65.9738 135.414 60.5968 142.022 60.5968H225.977C232.585 60.5968 237.962 65.9731 237.962 72.582C237.962 79.1917 232.586 84.5672 225.977 84.5672H142.022C135.414 84.568 130.036 79.191 130.036 72.582ZM139.565 92.0329C140.371 92.1343 141.19 92.1925 142.022 92.1925H225.977C226.808 92.1925 227.626 92.135 228.431 92.0329C238.517 103.115 244.06 117.373 244.06 132.423C244.06 141.634 241.922 150.786 237.874 158.99C223.908 164.233 204.396 167.232 184 167.232C163.606 167.232 144.091 164.232 130.124 158.989C126.075 150.784 123.936 141.633 123.936 132.424C123.937 117.373 129.48 103.115 139.565 92.0329ZM128.385 166.481C143.112 171.817 163.183 174.859 184.001 174.859C204.821 174.859 224.891 171.817 239.615 166.481C254.855 182.663 255.553 195.926 255.392 199.714C247.776 206.721 220.955 213.867 184.001 213.867C147.051 213.867 120.23 206.723 112.611 199.716C112.447 195.883 113.168 182.635 128.385 166.481ZM240.223 214.953V291.152C239.936 292.137 236.123 294.42 229.943 294.42C223.744 294.42 219.924 292.122 219.662 291.185V219.149C227.278 218.076 234.205 216.66 240.223 214.953ZM278.907 265.47C278.907 317.802 236.332 360.376 184.001 360.376C131.669 360.376 89.0945 317.802 89.0945 265.47C89.0945 244.187 96.2705 223.535 109.365 206.88C121.412 215.735 150.214 221.492 184 221.492C193.871 221.492 203.31 220.997 212.037 220.08V310.562C212.037 312.667 213.744 314.374 215.849 314.374C217.955 314.374 219.662 312.667 219.662 310.562V300.182C221.561 300.964 223.743 301.524 226.13 301.815V315.825C226.13 317.93 227.837 319.637 229.942 319.637C232.047 319.637 233.754 317.93 233.754 315.825V301.815C236.14 301.524 238.323 300.963 240.222 300.182V310.562C240.222 312.667 241.929 314.374 244.035 314.374C246.14 314.374 247.847 312.667 247.847 310.562V212.445C252.225 210.773 255.874 208.909 258.633 206.881C271.73 223.535 278.907 244.188 278.907 265.47Z" stroke="#F5F5F5" stroke-width="5"/>
<path d="M241.423 291.5L241.473 291.329V291.151V214.951V213.297L239.882 213.748C233.929 215.437 227.058 216.844 219.488 217.909L218.412 218.06V219.147V291.182V291.352L218.458 291.517C218.568 291.914 218.81 292.227 219.008 292.44C219.225 292.674 219.491 292.896 219.786 293.105C220.377 293.522 221.166 293.942 222.119 294.316C224.032 295.066 226.691 295.668 229.942 295.668C233.183 295.668 235.838 295.07 237.751 294.317C238.704 293.941 239.495 293.519 240.09 293.094C240.387 292.883 240.655 292.657 240.873 292.419C241.076 292.198 241.31 291.888 241.423 291.5Z" fill="#1A4FB6" stroke="#1A4FB6" stroke-width="2.5"/>
<path d="M256.238 200.633L256.619 200.283L256.641 199.766C256.816 195.67 256.016 182.07 240.525 165.623L239.962 165.025L239.189 165.305C224.636 170.579 204.719 173.608 184.001 173.608C163.285 173.608 143.366 170.579 128.811 165.304L128.039 165.024L127.475 165.622C112.009 182.043 111.186 195.627 111.361 199.769L111.382 200.286L111.763 200.636C113.832 202.538 117.1 204.366 121.321 206.044C125.564 207.731 130.855 209.298 137.042 210.64C149.417 213.323 165.45 215.115 184.001 215.115C202.554 215.115 218.588 213.322 230.964 210.638C237.151 209.297 242.441 207.729 246.683 206.042C250.904 204.364 254.171 202.535 256.238 200.633Z" fill="#1A4FB6" stroke="#1A4FB6" stroke-width="2.5"/>
<path d="M215.75 137.333C215.75 139.232 214.284 140.75 212.5 140.75C210.716 140.75 209.25 139.232 209.25 137.333C209.25 136.871 209.413 136.193 209.684 135.415C209.954 134.645 210.321 133.802 210.711 133.019C211.102 132.235 211.512 131.519 211.864 131.002C212.041 130.742 212.199 130.54 212.329 130.405C212.394 130.338 212.446 130.294 212.484 130.268C212.49 130.264 212.496 130.261 212.5 130.258C212.504 130.261 212.51 130.264 212.516 130.268C212.554 130.294 212.606 130.338 212.671 130.405C212.801 130.54 212.959 130.742 213.136 131.002C213.488 131.519 213.898 132.235 214.289 133.019C214.679 133.802 215.046 134.645 215.316 135.415C215.587 136.193 215.75 136.871 215.75 137.333Z" fill="url(#paint0_radial_155_250)" stroke="black" stroke-width="0.5"/>
</g>
<defs>
<radialGradient id="paint0_radial_155_250" cx="0" cy="0" r="1" gradientUnits="userSpaceOnUse" gradientTransform="translate(212.5 135.5) rotate(90) scale(5.5 3.5)">
<stop stop-color="#1A4FB6"/>
<stop offset="1" stop-color="#2871FF"/>
</radialGradient>
<clipPath id="clip0_155_250">
<rect width="368" height="368" fill="white"/>
</clipPath>
</defs>
</svg>
